<?xml version="1.0" standalone="no"?>
<!DOCTYPE svg PUBLIC "-//W3C//DTD SVG 20010904//EN"
 "http://www.w3.org/TR/2001/REC-SVG-20010904/DTD/svg10.dtd">
<svg version="1.0" xmlns="http://www.w3.org/2000/svg"
 width="384.000000pt" height="384.000000pt" viewBox="0 0 384.000000 384.000000"
 preserveAspectRatio="xMidYMid meet">

<g transform="translate(0.000000,384.000000) scale(0.100000,-0.100000)"
fill="#000000" stroke="none">
<path d="M2650 2994 c-157 -42 -236 -111 -403 -355 -67 -99 -125 -179 -129
-179 -5 0 -8 70 -8 155 l0 155 -25 0 -25 0 0 -314 0 -314 25 -4 25 -5 0 110
c0 94 3 115 21 143 11 19 24 34 27 34 6 0 46 -59 183 -273 8 -11 59 -19 59 -8
0 4 -47 81 -104 171 l-104 164 40 58 c110 163 193 200 333 146 l56 -21 67 23
c112 40 204 26 266 -39 l26 -27 -39 -42 c-65 -68 -78 -151 -37 -239 17 -35 38
-60 65 -78 l40 -27 -15 -37 c-26 -63 -78 -142 -117 -177 -31 -28 -45 -34 -82
-34 -25 0 -62 7 -82 15 -49 21 -113 19 -175 -6 -28 -11 -60 -18 -70 -16 -10 3
-18 1 -18 -4 0 -12 134 -254 217 -391 67 -112 85 -127 137 -114 55 14 389 635
461 858 71 218 34 379 -120 533 -133 133 -319 186 -495 139z m157 -94 c-11
-86 -78 -165 -150 -177 -36 -5 -37 -5 -37 25 0 17 4 42 9 55 16 40 73 99 116
118 61 28 69 26 62 -21z"/>
<path d="M530 2455 c0 -293 1 -315 18 -316 253 -9 292 15 292 182 l0 82 -40
38 c-35 33 -37 39 -21 44 29 9 51 66 51 130 0 121 -45 155 -205 155 l-95 0 0
-315z m226 244 c15 -16 19 -36 19 -90 0 -96 -17 -112 -117 -113 l-73 -1 -3
113 -3 112 79 0 c68 0 82 -3 98 -21z m-26 -262 c48 -17 61 -47 58 -136 -3 -66
-6 -76 -32 -97 -25 -22 -36 -25 -100 -22 l-71 3 -3 119 c-1 66 0 126 2 133 7
17 97 17 146 0z"/>
<path d="M910 2455 l0 -315 35 0 c228 -3 240 -2 240 17 0 16 -11 18 -112 21
l-113 3 0 294 0 295 -25 0 -25 0 0 -315z"/>
<path d="M1316 2462 c-42 -170 -76 -311 -76 -315 0 -4 11 -7 24 -7 18 0 26 7
30 28 4 15 12 44 17 65 l10 37 108 0 108 0 14 -62 c13 -58 17 -63 43 -66 24
-3 28 0 24 15 -3 10 -38 152 -79 316 l-74 297 -36 0 -37 0 -76 -308z m159 50
c25 -94 45 -176 45 -182 0 -6 -36 -10 -96 -10 -86 0 -95 2 -90 18 3 9 24 93
47 185 23 92 43 166 46 164 2 -3 24 -81 48 -175z"/>
<path d="M1754 2754 c-16 -8 -39 -29 -50 -47 -17 -29 -19 -52 -19 -252 0 -239
4 -259 57 -298 38 -28 119 -34 167 -12 55 24 81 75 81 159 0 64 -1 66 -25 66
-24 0 -25 -3 -25 -60 0 -64 -18 -113 -45 -124 -9 -3 -37 -6 -61 -6 -34 0 -51
6 -69 25 l-25 24 0 221 0 222 29 29 c31 31 83 39 122 19 28 -16 49 -63 49
-115 0 -41 2 -45 25 -45 23 0 25 3 25 50 0 107 -50 160 -150 160 -30 0 -69 -7
-86 -16z"/>
<path d="M594 1981 c-45 -27 -67 -81 -62 -150 5 -76 27 -105 136 -179 103 -70
128 -107 119 -172 -10 -74 -67 -109 -144 -88 -40 11 -63 51 -63 108 0 39 -1
41 -27 38 -27 -3 -28 -5 -25 -52 5 -96 60 -146 162 -146 98 0 152 55 154 155
0 63 -24 108 -84 153 -133 98 -152 115 -167 149 -28 68 8 147 73 159 68 13
124 -34 124 -106 0 -25 4 -30 25 -30 22 0 25 4 25 35 0 53 -25 102 -62 125
-44 27 -140 28 -184 1z"/>
<path d="M890 1975 c0 -24 2 -25 75 -25 l75 0 0 -305 0 -305 25 0 25 0 0 305
0 305 75 0 c73 0 75 1 75 25 l0 25 -175 0 -175 0 0 -25z"/>
<path d="M1360 1978 c-67 -46 -71 -66 -68 -318 3 -198 5 -229 21 -253 29 -45
75 -67 137 -67 69 0 118 24 145 70 18 32 20 52 20 260 0 251 -5 272 -68 310
-47 29 -143 27 -187 -2z m139 -29 c56 -20 61 -44 61 -279 0 -183 -2 -216 -17
-241 -23 -38 -79 -55 -129 -39 -62 21 -64 30 -64 278 0 133 4 231 10 242 13
24 57 49 86 50 12 0 35 -5 53 -11z"/>
<path d="M1690 1670 l0 -330 25 0 25 0 0 146 0 146 80 -4 c115 -5 124 -16 128
-156 2 -59 8 -113 14 -119 6 -7 22 -13 35 -13 20 0 24 4 18 18 -4 9 -10 64
-14 122 -6 112 -21 152 -61 165 -18 6 -16 10 20 44 l40 38 0 87 c0 151 -39
185 -212 186 l-98 0 0 -330z m227 256 c25 -22 28 -31 31 -103 4 -73 2 -82 -21
-109 -23 -27 -31 -29 -106 -32 l-81 -4 0 136 0 136 74 0 c65 0 79 -3 103 -24z"/>
<path d="M2090 1670 l0 -330 145 0 145 0 0 25 0 25 -120 0 -120 0 0 130 0 130
100 0 c100 0 100 0 100 25 0 24 -1 24 -97 27 l-98 3 0 120 0 120 118 3 117 3
0 24 0 25 -145 0 -145 0 0 -330z"/>
<path d="M3232 1280 c-10 -17 -10 -20 6 -20 19 0 42 18 42 32 0 16 -36 7 -48
-12z"/>
<path d="M2185 1242 c-41 -8 -45 -21 -45 -132 0 -117 10 -140 62 -140 49 0 63
31 63 140 0 118 -16 145 -80 132z m35 -138 c0 -86 -2 -95 -17 -92 -15 3 -18
17 -21 92 -2 63 1 92 10 97 23 15 28 -2 28 -97z"/>
<path d="M540 1105 l0 -135 34 0 c60 0 84 15 92 57 5 26 2 45 -9 65 -9 16 -12
30 -6 33 13 9 11 89 -3 103 -7 7 -34 12 -60 12 l-48 0 0 -135z m78 63 c-2 -22
-9 -34 -20 -36 -15 -3 -18 4 -18 32 0 30 4 36 21 36 17 0 20 -5 17 -32z m4
-106 c6 -39 0 -52 -23 -52 -16 0 -19 7 -19 40 0 33 4 40 19 40 13 0 20 -9 23
-28z"/>
<path d="M1086 1218 c-12 -16 -16 -47 -16 -115 0 -103 15 -133 65 -133 14 0
34 9 45 20 17 17 20 33 20 118 0 83 -3 102 -18 115 -27 25 -78 22 -96 -5z m72
-117 c-3 -78 -5 -86 -23 -86 -18 0 -20 8 -23 83 -3 90 8 123 35 101 10 -9 13
-34 11 -98z"/>
<path d="M1621 1226 c-15 -18 -25 -124 -17 -180 8 -54 27 -76 65 -76 43 0 61
28 61 93 0 57 0 57 -30 57 -31 0 -39 -17 -19 -37 15 -15 7 -68 -11 -68 -12 0
-15 17 -15 95 0 78 3 95 15 95 9 0 16 -11 18 -27 5 -38 42 -40 42 -2 0 46 -17
64 -59 64 -21 0 -44 -6 -50 -14z"/>
<path d="M2660 1220 c0 -15 7 -20 25 -20 l25 0 0 -115 c0 -108 1 -115 20 -115
19 0 20 7 20 115 0 108 1 115 20 115 13 0 20 7 20 20 0 18 -7 20 -65 20 -58 0
-65 -2 -65 -20z"/>
<path d="M3210 1235 c0 -4 -9 -63 -21 -132 -12 -68 -19 -127 -15 -130 11 -11
36 7 36 27 0 16 7 20 30 20 25 0 30 -4 30 -25 0 -18 5 -25 20 -25 25 0 25 16
1 160 l-17 105 -32 3 c-18 2 -32 0 -32 -3z m44 -127 c5 -44 4 -48 -15 -48 -17
0 -20 4 -15 23 3 12 6 38 6 57 0 47 16 26 24 -32z"/>
<path d="M580 891 l25 -7 -27 -6 c-16 -3 -29 0 -31 6 -3 6 -4 -1 -3 -16 1 -30
10 -33 65 -22 17 4 31 13 31 20 0 12 207 14 1319 14 1019 0 1320 -3 1323 -12
3 -7 16 -13 31 -13 21 -2 26 2 23 19 l-3 21 -1389 2 c-764 0 -1378 -2 -1364
-6z"/>
<path d="M758 858 c9 -9 15 -9 24 0 9 9 7 12 -12 12 -19 0 -21 -3 -12 -12z"/>
<path d="M1045 860 c3 -5 17 -10 30 -10 13 0 27 5 30 10 4 6 -8 10 -30 10 -22
0 -34 -4 -30 -10z"/>
<path d="M1365 860 c3 -5 17 -10 30 -10 13 0 27 5 30 10 4 6 -8 10 -30 10 -22
0 -34 -4 -30 -10z"/>
<path d="M1685 860 c3 -5 17 -10 30 -10 13 0 27 5 30 10 4 6 -8 10 -30 10 -22
0 -34 -4 -30 -10z"/>
<path d="M2005 860 c3 -5 17 -10 30 -10 13 0 27 5 30 10 4 6 -8 10 -30 10 -22
0 -34 -4 -30 -10z"/>
<path d="M2325 860 c3 -5 17 -10 30 -10 13 0 27 5 30 10 4 6 -8 10 -30 10 -22
0 -34 -4 -30 -10z"/>
<path d="M2645 860 c3 -5 17 -10 30 -10 13 0 27 5 30 10 4 6 -8 10 -30 10 -22
0 -34 -4 -30 -10z"/>
<path d="M2965 860 c3 -5 17 -10 30 -10 13 0 27 5 30 10 4 6 -8 10 -30 10 -22
0 -34 -4 -30 -10z"/>
</g>
</svg>
